<?xml version="1.0" encoding="utf-8"?>
<!-- Generator: Adobe Illustrator 28.0.0, SVG Export Plug-In . SVG Version: 6.00 Build 0)  -->
<svg version="1.1" id="Слой_1" xmlns="http://www.w3.org/2000/svg" xmlns:xlink="http://www.w3.org/1999/xlink" x="0px" y="0px"
	 viewBox="0 0 595.28 841.89" style="enable-background:new 0 0 595.28 841.89;" xml:space="preserve">
<style type="text/css">
	.st0{fill:#ffffff;}
	.st1{fill:#ffffff;}
	.st2{fill-rule:evenodd;clip-rule:evenodd;fill:#ffffff;}
</style>
<g>
	<g>
		<g>
			<path class="st0" d="M89.09,433.77c-1.87,1.86-4.34,2.87-7.08,2.87c-2.72,0-5.21-1.01-7.08-2.87c-2.29-2.35-2.61-4.94-2.61-9.99
				h-5.87v12.64H63.5v-27.71h2.96v12.41h5.87c0.06-4.38,0.15-7.31,2.61-9.76c1.87-1.87,4.36-2.88,7.08-2.88
				c2.7,0,5.2,1.01,7.08,2.88c2.23,2.26,2.61,5.25,2.61,8.72v2.48C91.7,428.75,91.51,431.31,89.09,433.77z M88.72,421.83
				c0-5.33-0.36-7.13-1.92-8.75c-1.27-1.26-2.96-1.96-4.8-1.96c-1.86,0-3.58,0.7-4.77,1.96c-1.77,1.79-1.96,4.19-1.96,9.25v1.37
				c0,4.97,0.44,6.71,1.96,8.31c1.24,1.26,2.91,1.99,4.77,1.99c1.84,0,3.53-0.7,4.8-1.99c1.92-1.94,1.92-4.67,1.92-8.98V421.83z"/>
			<path class="st0" d="M109.39,436.42H98.62v-27.71h10.42c4.89,0,8.16,2.92,8.16,7.27c0,1.99-0.69,3.66-2.02,4.9
				c-0.57,0.6-1,0.82-2.05,1.29c1.27,0.54,1.78,0.85,2.44,1.52c1.36,1.32,2.05,3.02,2.05,5.13
				C117.63,433.54,114.52,436.42,109.39,436.42z M108.8,411.36h-7.24v9.62h7.24c3.43,0,5.45-1.8,5.45-4.84
				C114.25,413.16,112.23,411.36,108.8,411.36z M109.12,423.62h-7.56v10.15h7.56c3.43,0,5.57-1.98,5.57-5.1
				C114.69,425.56,112.55,423.62,109.12,423.62z"/>
			<path class="st0" d="M124.6,436.42v-27.71h17.18v2.65h-14.24v9.76h12.15v2.66h-12.15v9.99h14.24v2.65H124.6z"/>
			<path class="st0" d="M163.3,436.42v-25.06h-9.43v9.49c0,11.68-2.79,15.57-8.09,15.57h-1.4v-2.65h0.74
				c3.42,0,5.87-2.29,5.87-13.82v-11.24h15.27v27.71H163.3z"/>
			<path class="st0" d="M191.13,436.42v-22.61l-14.09,22.61h-2.79v-27.71h2.94v22.57l14.09-22.57h2.81v27.71H191.13z"/>
			<path class="st0" d="M212.39,425.02h-7.36v11.4h-2.94v-27.71h10.3c5.14,0,8.57,3.27,8.57,8.14
				C220.96,421.75,217.53,425.02,212.39,425.02z M212.12,411.36h-7.09v11.01h7.09c3.7,0,5.88-2.07,5.88-5.52
				C218,413.37,215.81,411.36,212.12,411.36z"/>
			<path class="st0" d="M242.68,436.42v-12.64h-13.14v12.64h-2.97v-27.71h2.97v12.41h13.14v-12.41h2.96v27.71H242.68z"/>
			<path class="st0" d="M271.97,422.56c0,5.52-0.08,8.68-2.61,11.21c-1.86,1.86-4.31,2.87-7.08,2.87c-2.76,0-5.22-1.01-7.09-2.87
				c-2.52-2.53-2.6-5.69-2.6-11.21v-2.14c0-3.31,0.24-6.69,2.6-9.06c1.87-1.87,4.36-2.88,7.09-2.88c2.73,0,5.22,1.01,7.08,2.88
				c2.41,2.42,2.61,5.91,2.61,9.31V422.56z M269.01,421.09c0-3.27-0.11-6.14-1.93-7.98c-1.3-1.29-3-1.99-4.8-1.99
				c-1.78,0-3.52,0.7-4.78,1.99c-1.95,1.95-1.95,4.82-1.95,8.64v2.75c0,3,0.17,5.73,1.95,7.51c1.27,1.29,2.94,1.99,4.78,1.99
				c1.83,0,3.5-0.7,4.8-1.99c1.9-1.89,1.93-4.9,1.93-8.09V421.09z"/>
			<path class="st0" d="M278.91,436.42v-27.71h17.21v2.65h-14.24v9.76h12.13v2.66h-12.13v9.99h14.24v2.65H278.91z"/>
		</g>
		<g>
			<path class="st0" d="M337.73,436.42v-22.61l-14.08,22.61h-2.81v-27.71h2.96v22.57l14.09-22.57h2.79v27.71H337.73z"/>
			<path class="st0" d="M357.33,436.64c-2.72,0-5.22-1.01-7.08-2.87c-2.62-2.61-2.62-5.33-2.62-11.21c0-5.88,0-8.59,2.62-11.2
				c1.86-1.87,4.36-2.88,7.08-2.88c4.98,0,8.68,3.05,9.61,8.26h-3.03c-0.74-3.39-3.11-5.62-6.58-5.62c-1.84,0-3.59,0.7-4.78,1.96
				c-1.75,1.79-1.95,3.68-1.95,9.48c0,5.8,0.2,7.71,1.95,9.5c1.19,1.25,2.94,1.95,4.78,1.95c3.47,0,5.91-2.22,6.65-5.61h2.96
				C366.03,433.61,362.26,436.64,357.33,436.64z"/>
			<path class="st0" d="M373.61,436.42v-27.71h2.96v13.19l11.87-13.19h3.74l-12.15,13.16l13.2,14.55h-3.94l-12.73-14.43v14.43
				H373.61z"/>
			<path class="st0" d="M404.02,432.1c-1.09,2.53-2.69,4.32-5.43,4.32h-2.43v-2.65h1.75c1.9,0,2.84-0.86,3.67-2.77l1.13-2.61
				l-9.14-19.68h3.14l7.47,16.37l6.74-16.37h3.15L404.02,432.1z"/>
			<path class="st0" d="M426.65,436.64c-2.73,0-5.21-1.01-7.08-2.87c-2.62-2.61-2.62-5.33-2.62-11.21c0-5.88,0-8.59,2.62-11.2
				c1.87-1.87,4.35-2.88,7.08-2.88c4.98,0,8.67,3.05,9.61,8.26h-3.02c-0.75-3.39-3.12-5.62-6.59-5.62c-1.83,0-3.58,0.7-4.78,1.96
				c-1.77,1.79-1.95,3.68-1.95,9.48c0,5.8,0.18,7.71,1.95,9.5c1.21,1.25,2.96,1.95,4.78,1.95c3.47,0,5.93-2.22,6.65-5.61h2.96
				C435.36,433.61,431.6,436.64,426.65,436.64z"/>
			<path class="st0" d="M451.03,436.64c-2.73,0-5.22-1.01-7.08-2.87c-2.61-2.61-2.61-5.33-2.61-11.21c0-5.88,0-8.59,2.61-11.2
				c1.86-1.87,4.34-2.88,7.08-2.88c4.98,0,8.67,3.05,9.61,8.26h-3.03c-0.74-3.39-3.11-5.62-6.58-5.62c-1.83,0-3.58,0.7-4.78,1.96
				c-1.75,1.79-1.95,3.68-1.95,9.48c0,5.8,0.2,7.71,1.95,9.5c1.21,1.25,2.96,1.95,4.78,1.95c3.47,0,5.91-2.22,6.65-5.61h2.96
				C459.75,433.61,455.98,436.64,451.03,436.64z"/>
			<path class="st0" d="M474.91,411.36v25.06h-2.96v-25.06h-8.03v-2.65h18.98v2.65H474.91z"/>
			<path class="st0" d="M498.86,436.42h-10.77v-27.71h10.44c4.89,0,8.15,2.92,8.15,7.27c0,1.99-0.68,3.66-2.01,4.9
				c-0.59,0.6-1.03,0.82-2.07,1.29c1.28,0.54,1.8,0.85,2.44,1.52c1.37,1.32,2.07,3.02,2.07,5.13
				C507.11,433.54,504,436.42,498.86,436.42z M498.28,411.36h-7.24v9.62h7.24c3.42,0,5.43-1.8,5.43-4.84
				C503.71,413.16,501.71,411.36,498.28,411.36z M498.6,423.62h-7.56v10.15h7.56c3.41,0,5.55-1.98,5.55-5.1
				C504.15,425.56,502.01,423.62,498.6,423.62z"/>
			<path class="st0" d="M532.38,422.56c0,5.52-0.06,8.68-2.6,11.21c-1.87,1.86-4.31,2.87-7.08,2.87s-5.22-1.01-7.09-2.87
				c-2.53-2.53-2.61-5.69-2.61-11.21v-2.14c0-3.31,0.24-6.69,2.61-9.06c1.87-1.87,4.36-2.88,7.09-2.88c2.72,0,5.2,1.01,7.08,2.88
				c2.4,2.42,2.6,5.91,2.6,9.31V422.56z M529.42,421.09c0-3.27-0.11-6.14-1.95-7.98c-1.27-1.29-2.97-1.99-4.77-1.99
				s-3.52,0.7-4.8,1.99c-1.95,1.95-1.95,4.82-1.95,8.64v2.75c0,3,0.17,5.73,1.95,7.51c1.28,1.29,2.97,1.99,4.8,1.99
				s3.5-0.7,4.77-1.99c1.92-1.89,1.95-4.9,1.95-8.09V421.09z"/>
		</g>
	</g>
	<g>
		<g>
			<g>
				<polygon class="st1" points="210.15,289.25 210.15,289.26 210.15,289.27 				"/>
				<path class="st1" d="M218.46,314.55v0.01c-1.35-3.61-3.32-6.83-5.8-9.58l-0.01-0.01l0,0c-2.51-2.76-5.52-5-8.95-6.71
					c-0.69-0.34-1.37-0.67-2.09-0.97c0.62-0.41,1.19-0.83,1.74-1.25l0,0c2.74-2.04,5.03-4.28,6.8-6.78v-0.01
					c1.76-2.46,3.04-5.25,3.78-8.2c0.72-2.86,1.06-5.99,1.06-9.38c0.01-4.82-1.13-9.39-3.39-13.43v0.01
					c-2.18-3.99-5.25-7.36-9.04-10.09h-0.01c-3.77-2.69-8.23-4.75-13.27-6.2l0,0c-5.08-1.46-10.6-2.16-16.52-2.16h-46.58v4.06
					v117.31h53.39c5.98,0,11.47-0.83,16.45-2.52h0.01l0,0c4.94-1.69,9.26-4.07,12.89-7.15l0.01-0.01c3.61-3.11,6.49-6.82,8.51-11.1
					c2.03-4.31,3.06-9.02,3.06-13.92C220.51,322.2,219.83,318.21,218.46,314.55z M172.39,344.54c-0.55,0.04-1.09,0.11-1.67,0.15
					c-0.27,0.01-0.56,0-0.81,0.01c-0.91,0.04-1.83,0.07-2.79,0.07h-15.7v-38.87h15.16c0.62,0,1.18,0.04,1.77,0.06
					c0.72,0.01,1.48,0.01,2.18,0.04c0.53,0.04,1.02,0.11,1.55,0.15c0.66,0.07,1.34,0.13,1.97,0.21c2.23,0.28,4.23,0.74,5.95,1.32
					c3.56,1.18,6.31,2.74,8.27,4.56h0.01l0,0c2.02,1.85,3.34,3.91,4.18,6.33l0,0c0.91,2.59,1.37,5.4,1.37,8.54
					c0,2.65-0.48,4.91-1.43,7.03c-0.88,2-2.25,3.74-4.32,5.32l0,0c-2.04,1.55-4.8,2.88-8.3,3.84
					C177.62,343.89,175.14,344.3,172.39,344.54z M165.17,255.55c0.35,0.01,0.72,0.01,1.05,0.04c0.48,0.01,0.91,0.07,1.37,0.11
					c2.96,0.22,5.6,0.63,7.84,1.22l0,0c3.49,0.94,6.22,2.27,8.25,3.82l0,0c2.07,1.6,3.42,3.36,4.29,5.38
					c0.92,2.13,1.41,4.49,1.41,7.28c0,2.59-0.41,4.86-1.2,6.93v0.01c-0.8,2.06-1.92,3.81-3.47,5.36c-1.49,1.51-3.4,2.73-5.82,3.68
					l0,0c-2.35,0.91-5.11,1.4-8.36,1.4h-19.13v-35.3h11.1C163.44,255.49,164.3,255.53,165.17,255.55z"/>
			</g>
			<path class="st2" d="M262.04,265.71c-2.45,1.16-4.76,2.63-6.99,4.55h0.06c-1.71,1.44-3.42,3.05-5.01,4.8v-9.35h-23.54v95.51
				h23.54v-63.41c0.93-1.46,1.78-2.84,2.63-4.17c1.06-1.54,2.04-2.77,2.97-3.88h0.07h-0.07c0.94-1.02,1.79-1.68,2.51-2.18v0.06
				l1.46-0.5c1.05,0,1.76,0.15,2.09,0.29c0.81,0.36,1.6,0.73,2.38,1.25c1.06,0.57,2.25,1.18,3.5,1.6c1.71,0.66,3.5,0.83,5.61,0.83
				c3.43,0,6.59-0.83,9.17-3.01c2.63-2.27,3.95-5.92,3.89-9.59c0-2.11-0.53-4.24-1.51-6.05c-0.93-1.75-2.18-3.3-3.69-4.54
				c-1.53-1.25-3.18-2.2-5.01-2.87c-1.99-0.73-4.03-1.09-6.14-1.09C267.26,263.95,264.6,264.54,262.04,265.71"/>
			<path class="st2" d="M392.35,280.19c-1.23-3.5-3.35-6.65-6.12-9h0.06c-2.81-2.48-6.32-4.24-10.35-5.4
				c-4.15-1.25-9.03-1.83-14.64-1.83c-4.77,0-9.22,0.59-13.58,1.68c-4.29,1.18-8.11,2.72-11.5,4.69c-3.35,2.04-6.12,4.54-8.31,7.53
				c-2.17,3.08-3.43,6.72-3.43,10.6c0,1.82,0.26,3.65,0.81,5.42c0.59,1.68,1.44,3.29,2.57,4.61h-0.08c1.13,1.32,2.44,2.42,3.96,3.15
				c1.57,0.71,3.23,1.09,4.94,1.09c2.13,0,4.1-0.38,5.81-1.47c1.53-0.95,2.83-2.25,3.82-3.95c0.86-1.53,1.46-3.29,1.78-5.12v-0.07
				c0.27-1.61,0.39-3.29,0.39-5.04c0-1.33,0.15-2.56,0.41-3.89c0.25-0.94,0.58-1.74,1.25-2.55c0.52-0.64,1.31-1.3,2.7-1.89h-0.06
				c1.11-0.52,2.97-0.88,5.41-0.88c2.17,0,3.96,0.28,5.47,0.88c1.38,0.52,2.49,1.32,3.42,2.48c0.99,1.18,1.78,2.79,2.37,5.04v0.08
				c0.67,2.18,0.99,5.19,0.99,8.83v2.28c-2.83,0.73-5.67,1.54-8.57,2.42c-3.96,1.16-7.78,2.46-11.54,4
				c-3.68,1.54-7.32,3.22-10.68,5.12c-3.51,2.04-6.62,4.31-9.25,6.94c-2.77,2.7-4.95,5.8-6.59,9.3c-1.65,3.57-2.51,7.67-2.51,11.98
				c0,3.51,0.6,6.96,1.72,10.09c1.2,3.21,2.91,5.99,5.1,8.34c2.23,2.34,4.85,4.16,7.9,5.49c3.02,1.32,6.38,1.89,10.02,1.89
				c3.76,0,12.04-1.37,18.15-5.04c2.25-1.37,4.34-3.01,6.26-4.69v7.91h23.69v-70.06C394.15,287.29,393.61,283.55,392.35,280.19z
				 M370.46,336.71c-1.06,0.9-2.11,1.69-3.14,2.49v-0.06c-1.47,1.09-2.86,2.04-4.31,2.86v-0.08c-1.32,0.8-2.72,1.39-4.16,1.83
				c-1.33,0.43-2.72,0.64-4.21,0.64c-1.19,0-2.32-0.29-3.5-0.87h0.07c-1.25-0.64-2.25-1.47-3.16-2.56
				c-0.92-1.09-1.65-2.34-2.25-3.79v-0.08c-0.54-1.39-0.85-2.84-0.85-4.47c0.05-1.32,0.32-2.56,0.99-3.88
				c0.78-1.53,1.84-2.98,3.22-4.38c1.45-1.46,3.23-2.93,5.2-4.33c2.12-1.39,4.3-2.69,6.59-3.93c2.31-1.18,4.69-2.34,7.14-3.29
				c0.78-0.36,1.58-0.66,2.37-0.95V336.71z"/>
			<polygon class="st2" points="310.53,276.1 290.1,295.34 290.1,361.18 313.64,361.18 313.64,276.1 			"/>
			<polygon class="st2" points="429.83,224.79 409.41,244.04 409.41,361.18 432.96,361.18 432.96,224.79 			"/>
			<polygon class="st2" points="466.56,224.79 446.14,244.04 446.14,361.18 469.69,361.18 469.69,224.79 			"/>
		</g>
	</g>
	<g>
		<path d="M340.71,230.35h-21.18l7.43-4.07c0.18-0.1,0.16-0.41,0.04-0.57c-0.11-0.15-0.36-0.2-0.55-0.12l-8.81,3.79l5.05-10.47
			c0.08-0.17-0.16-0.41-0.36-0.49c-0.19-0.07-0.42-0.01-0.53,0.14l-6.66,9.12l-0.58-5.24c-0.02-0.18-0.42-0.32-0.62-0.3
			c-0.21,0.01-0.38,0.15-0.39,0.32l-0.33,5.51l-11.53-11c-0.15-0.14-0.53-0.08-0.7,0.04c-0.17,0.11-0.21,0.31-0.09,0.45l9.24,11.39
			l-8.45-3.39c-0.2-0.08-0.44-0.02-0.54,0.14l-0.07,0.11c-0.1,0.15-0.04,0.35,0.14,0.44l8.3,4.36l-23.16,0.27
			c-0.22,0-0.4,0.15-0.41,0.33l0,0.14c-0.01,0.18,0.16,0.33,0.38,0.35l23.72,1.7l-8.36,5.73c-0.17,0.11-0.09,0.44,0.04,0.58
			c0.13,0.14,0.38,0.18,0.56,0.08l8.89-4.69c-1.54,4.55-10.18,29.56-10.86,31.47c-0.02,0.06-0.06,0.12-0.1,0.19l-12.74-27.99
			c-0.08-0.17-0.32-0.26-0.53-0.2l-0.14,0.04c-0.21,0.06-0.33,0.25-0.25,0.42l9.81,24.45l-12.33-16.82
			c-0.06-0.08-0.21-0.1-0.32-0.12c-0.11-0.02-0.28,0.02-0.38,0.07c-0.19,0.09-0.26,0.29-0.15,0.45l16.1,23.61
			c0.07,0.1,0.18,0.16,0.32,0.17c0.01,0,0.03,0,0.05,0c0.12,0,0.23-0.04,0.31-0.11l39.31-36.02c0.15-0.14,0.14-0.34-0.02-0.47
			l-0.14-0.11c-0.16-0.12-0.42-0.12-0.58,0.02l-32.22,27.5c1.53-2.19,3.07-4.38,4.61-6.57c1.99-2.83,3.98-5.67,5.96-8.51
			c0.11-0.16,0.05-0.35-0.13-0.45l-0.25-0.12c-0.09-0.05-0.2-0.07-0.31-0.05c-0.11,0.02-0.2,0.07-0.26,0.15
			c-0.04,0.05-0.92,1.24-2.73,3.7c-2.87,3.89-8.05,10.91-10.63,14.38l13.13-29.65l8.72,6.15c0.16,0.12,0.42,0.11,0.57-0.02l0.12-0.1
			c0.15-0.13,0.15-0.33,0-0.46l-7.52-6.66l23.2-2.17c0.22-0.02,0.37-0.34,0.35-0.52C341.1,230.49,340.92,230.35,340.71,230.35z"/>
		<path class="st1" d="M260.95,233.64l9.52,3.39c0.2,0.07,0.44,0,0.54-0.16l0.08-0.15c0.09-0.16,0.01-0.35-0.18-0.44l-9.22-3.98
			l15.42-0.6c0.22-0.01,0.4-0.16,0.39-0.35l0-0.14c-0.01-0.18-0.18-0.32-0.4-0.33l-16.34-0.4l9.44-4.44
			c0.19-0.09,0.19-0.4,0.09-0.56c-0.1-0.16-0.34-0.23-0.54-0.15l-8.96,3.3l11.02-11.04c0.14-0.14,0.12-0.34-0.04-0.46
			c-0.16-0.12-0.41-0.12-0.57,0c-0.77,0.59-9.2,7.63-13.73,11.41l-2.39,1.99c-0.42,0.35-0.42,0.69-0.01,1.05
			c0.82,0.72,18.78,17.02,27.41,24.85l3.89,3.53c0.48,0.43,0.96,0.86,1.44,1.28l0.68,0.6c0.06,0.05,0.15,0.07,0.25,0.07
			c0.16,0,0.34-0.06,0.45-0.14c0.16-0.12,0.18-0.33,0.04-0.47L260.95,233.64z"/>
		<path class="st1" d="M276.52,214.14l42.98,1.43l-4.6,2.97c-0.18,0.12-0.21,0.33-0.07,0.47l0.11,0.11c0.12,0.12,0.33,0.16,0.49,0.1
			l0.11-0.04c0.09-0.03,0.18-0.06,0.27-0.1l6.77-2.89c0.02-0.01,0.05-0.02,0.07-0.03c0.79,1.07,1.58,2.14,2.38,3.21l2.16,2.9
			c0.11,0.15,0.5,0.14,0.69,0.07c0.19-0.08,0.28-0.26,0.21-0.43l-2.33-4.89l13.08,9.86c0.05,0.04,0.14,0.05,0.23,0.05
			c0.04,0,0.08,0,0.12,0c0.11,0,0.26-0.09,0.34-0.15c0.15-0.13,0.14-0.33,0-0.46l-0.93-0.8c-0.65-0.57-1.31-1.13-1.97-1.69l-3.51-3
			c-2.68-2.29-5.36-4.58-8.04-6.87c-0.37-0.32-0.77-0.46-1.31-0.46c0,0,0,0,0,0c-1.91,0.01-21.54-0.05-34.52-0.08
			c-6.89-0.02-12.2-0.03-12.71-0.03c-0.23,0-0.42,0.25-0.42,0.43C276.12,213.99,276.29,214.14,276.52,214.14z"/>
		<path class="st1" d="M281.93,230.51c0.06,0.11,0.18,0.18,0.32,0.2c0.02,0,0.04,0,0.06,0c0.12,0,0.24-0.04,0.32-0.12l10.28-9.81
			c0.07-0.07,0.05-0.2,0.04-0.29c-0.01-0.09-0.12-0.21-0.21-0.27c-0.16-0.11-0.39-0.1-0.54,0.01l-9.36,7.07l-7.74-11.32
			c-0.11-0.16-0.36-0.22-0.56-0.13l-0.16,0.07c-0.19,0.08-0.27,0.27-0.18,0.44L281.93,230.51z"/>
	</g>
</g>
</svg>
