<svg xmlns="http://www.w3.org/2000/svg" xmlns:xlink="http://www.w3.org/1999/xlink" xmlns:sketch="http://www.bohemiancoding.com/sketch/ns" viewBox="0 0 100 125" version="1.1" x="0px" y="0px"><title>A00</title><desc>Created with Sketch.</desc><g stroke="none" stroke-width="1" fill="none" fill-rule="evenodd" sketch:type="MSPage"><g sketch:type="MSArtboardGroup" fill="#000000"><path d="M50,90 C43.3941982,90 36.7883963,87.9816514 30.9165725,83.9449541 C16.0535184,73.3027523 12.5671229,52.7522936 23.0263092,37.706422 C24.8612541,34.9541284 27.2466826,32.7522936 29.8156055,30.733945 C31.100067,29.8165138 32.7515174,30 33.6689899,31.2844037 C34.5864624,32.5688073 34.4029679,34.2201835 33.1185064,35.1376147 C30.9165725,36.7889908 29.0816275,38.8073394 27.4301771,41.0091743 C18.6224413,53.4862385 21.5583532,70.733945 34.0359789,79.5412844 C46.5136046,88.3486239 63.7620872,85.412844 72.5698229,72.9357798 C81.3775587,60.4587156 78.4416468,43.2110092 65.9640211,34.4036697 C64.6795596,33.4862385 64.4960651,31.8348624 65.2300431,30.5504587 C66.1475156,29.266055 67.7989661,29.0825688 69.0834275,29.8165138 C83.9464816,40.4587156 87.4328771,61.0091743 76.9736908,76.0550459 C70.5513835,85.0458716 60.4591862,90 50,90 L50,90 Z M67.7989661,22.4770642 L51.467956,38.8073394 C50.9174725,39.3577982 50.1834945,39.5412844 49.4495165,39.5412844 C48.7155385,39.5412844 47.9815606,39.1743119 47.4310771,38.8073394 L31.100067,22.4770642 C30.1825945,21.559633 29.9991,20.2752294 30.733078,19.1743119 L34.9534514,11.4678899 C35.5039349,10.5504587 36.4214073,10 37.3388798,10 L61.5601532,10 C62.6611202,10 63.5785927,10.5504587 63.9455817,11.4678899 L68.165955,19.1743119 C68.7164385,20.2752294 68.532944,21.559633 67.7989661,22.4770642 L67.7989661,22.4770642 Z M62.4776257,19.9082569 L60.0921972,15.3211009 L52.3854284,15.3211009 L52.3854284,20.0917431 C52.3854284,21.559633 51.100967,22.8440367 49.633011,22.8440367 C48.165055,22.8440367 46.8805936,21.559633 46.8805936,20.0917431 L46.8805936,15.3211009 L38.9903303,15.3211009 L36.4214073,19.9082569 L49.4495165,32.9357798 L62.4776257,19.9082569 L62.4776257,19.9082569 Z" sketch:type="MSShapeGroup"/></g></g><text x="0" y="115" fill="#000000" font-size="5px" font-weight="bold" font-family="'Helvetica Neue', Helvetica, Arial-Unicode, Arial, Sans-serif">Created by Max Ten</text><text x="0" y="120" fill="#000000" font-size="5px" font-weight="bold" font-family="'Helvetica Neue', Helvetica, Arial-Unicode, Arial, Sans-serif">from the Noun Project</text></svg>