<svg fill="currentColor" style="display: none;" xmlns="http://www.w3.org/2000/svg"
     xmlns:xlink="http://www.w3.org/1999/xlink">

    <symbol id="necklace" viewBox="0 0 512 512">
        <g>
            <g>
                <g>
                    <path d="M491.779,150.646C491.756,150.591,491.756,150.591,491.779,150.646L491.779,150.646z"/>
                    <path d="M493.024,153.494c0.297,0.68,0.421,0.963-0.002-0.005c-0.82-1.877-1.167-2.67-1.243-2.844
				c0.126,0.289,0.839,1.92,1.241,2.839c-3.459-7.91-8.947-11.056-14.758-14.387C405.45,97.372,359.151,53.593,354.41,21.988
				C352.529,9.452,341.392,0,328.502,0h-58.92c-4.329,0-7.837,3.509-7.837,7.837c0,4.328,3.508,7.837,7.837,7.837h58.92
				c5.195,0,9.669,3.715,10.408,8.64c3.444,22.958,22.398,49.013,54.858,76.218c-4.032,7.235-8.307,14.364-12.815,21.378
				c-3.573-1.384-7.45-2.151-11.505-2.151c-17.616,0-31.948,14.332-31.948,31.948c0,7.229,2.417,13.902,6.48,19.262
				c-3.81,4.344-7.72,8.619-11.721,12.824c-4.752-2.808-10.288-4.427-16.197-4.427c-17.616,0-31.949,14.332-31.949,31.948
				c0,4.896,1.111,9.536,3.087,13.688c-7.327,5.824-14.857,11.444-22.589,16.831c-2.694-0.557-5.483-0.851-8.338-0.851
				c-2.857,0-5.648,0.295-8.342,0.852c-7.526-5.245-14.855-10.707-21.992-16.359c2.121-4.271,3.321-9.077,3.321-14.16
				c0-5.444-1.396-10.823-4.036-15.554c-2.111-3.78-6.882-5.133-10.662-3.024c-3.779,2.11-5.133,6.883-3.024,10.662
				c1.341,2.401,2.049,5.139,2.049,7.915c0,8.974-7.301,16.274-16.274,16.274s-16.274-7.301-16.274-16.274
				s7.301-16.274,16.274-16.274c4.328,0,7.837-3.509,7.837-7.837s-3.509-7.837-7.837-7.837c-6.139,0-11.876,1.744-16.75,4.757
				c-4.102-4.307-8.104-8.69-12.004-13.143c4.07-5.361,6.49-12.039,6.49-19.274c0-17.616-14.332-31.948-31.948-31.948
				c-4.07,0-7.959,0.773-11.542,2.166c-5.693-8.86-10.997-17.914-15.923-27.13c27.755-26.258,43.391-49.967,46.469-70.482
				c0.739-4.925,5.212-8.639,10.407-8.639h65.723c4.329,0,7.837-3.509,7.837-7.837c0-4.328-3.508-7.836-7.837-7.836H172.51
				c-12.891,0-24.028,9.453-25.907,21.989C142.19,51.41,101.128,93.857,33.946,138.445c-7.639,5.069-11.846,7.861-14.977,15.042
				c-1.437,3.296-2.15,6.783-2.119,10.367c0.8,91.263,24.784,177.229,67.532,242.064C129.488,474.326,190.435,512,255.999,512
				c65.559,0,126.505-37.672,171.613-106.076c17.913-27.166,32.632-58.156,43.747-92.106c1.347-4.113-0.895-8.539-5.009-9.886
				c-4.115-1.345-8.54,0.896-9.887,5.009c-10.682,32.625-24.791,62.351-41.937,88.354c-42.11,63.86-98.409,99.03-158.527,99.03
				c-60.121,0-116.423-35.172-158.532-99.036c-41.106-62.343-64.17-145.294-64.944-233.573c-0.013-1.367,0.261-2.7,0.813-3.965
				c1.212-2.779,2.186-3.543,9.276-8.247c16.695-11.08,39.771-27.406,61.038-45.872c4.717,8.616,9.765,17.086,15.125,25.396
				c-4.748,5.578-7.622,12.796-7.622,20.677c0,17.616,14.332,31.948,31.948,31.948c4.712,0,9.186-1.033,13.216-2.873
				c4.323,4.95,8.765,9.817,13.327,14.593c-2.716,4.695-4.279,10.137-4.279,15.94c0,17.616,14.332,31.948,31.948,31.948
				c6.862,0,13.219-2.182,18.432-5.878c5.143,4.084,10.386,8.067,15.725,11.951c-9.904,7.515-16.313,19.405-16.313,32.767
				c0,13.329,6.378,25.19,16.24,32.709c-25.466,24.058-40.43,55.991-39.986,87.142c0.037,2.736,0.3,5.494,0.559,8.215
				c0.31,3.261,0.599,6.699,1.569,9.846c7.511,29.443,33.275,49.986,62.737,49.986c29.818,0,55.703-20.899,62.946-50.824
				c0.866-3.492,1.212-7.12,1.51-10.698c0.18-2.16,0.41-4.356,0.41-6.526c0.148-10.292-1.373-20.786-4.519-31.189
				c-1.253-4.143-5.626-6.489-9.77-5.233c-4.143,1.253-6.486,5.627-5.233,9.77c2.679,8.86,3.975,17.751,3.85,26.323
				c-0.136,4.856-0.796,9.606-1.607,14.377c-5.702,22.594-25.197,38.326-47.587,38.326c-22.347,0-41.92-15.78-47.598-38.374
				c-1.163-4.651-1.457-9.652-1.598-14.432c-0.333-28.519,14.596-57.994,39.642-79.433c3.068,0.734,6.264,1.133,9.555,1.133
				c3.286,0,6.479-0.398,9.545-1.131c10.143,8.693,18.806,18.85,25.397,29.879c2.22,3.715,7.031,4.929,10.747,2.708
				s4.928-7.031,2.708-10.747c-6.31-10.563-14.304-20.389-23.535-29.106c9.87-7.518,16.258-19.387,16.258-32.723
				c0-13.363-6.411-25.254-16.316-32.77c5.473-3.978,10.851-8.061,16.122-12.256c5.291,3.885,11.814,6.186,18.866,6.186
				c17.615,0,31.947-14.332,31.947-31.948c0-6.036-1.683-11.686-4.604-16.506c4.378-4.598,8.652-9.276,12.811-14.033
				c4.034,1.843,8.513,2.88,13.231,2.88c17.616,0,31.948-14.332,31.948-31.948c0-7.894-2.884-15.123-7.644-20.704
				c4.349-6.74,8.486-13.587,12.413-20.527c18.109,13.923,39.63,28.083,64.304,42.223c5.284,3.028,6.866,4.036,8.191,7.068
				c0.552,1.264,0.826,2.601,0.814,3.97c-0.351,39.805-5.206,78.644-14.429,115.438c-1.053,4.198,1.497,8.454,5.696,9.508
				c0.64,0.16,1.28,0.237,1.911,0.237c3.509,0,6.703-2.375,7.594-5.933c9.525-37.994,14.538-78.069,14.901-119.112
				C495.178,160.284,494.465,156.792,493.024,153.494z M143.099,167.979c-8.974,0-16.274-7.301-16.274-16.274
				s7.301-16.274,16.274-16.274s16.274,7.301,16.274,16.274S152.073,167.979,143.099,167.979z M281.72,282.099
				c0,14.031-11.415,25.445-25.446,25.445c-14.031,0-25.446-11.414-25.446-25.445c0-14.031,11.416-25.445,25.446-25.445
				C270.304,256.654,281.72,268.069,281.72,282.099z M316.064,227.587c-8.975,0-16.275-7.301-16.275-16.274
				s7.301-16.274,16.275-16.274c8.974,0,16.273,7.301,16.273,16.274C332.338,220.286,325.037,227.587,316.064,227.587z
				 M369.448,167.979c-8.974,0-16.274-7.301-16.274-16.274s7.301-16.274,16.274-16.274c8.974,0,16.274,7.301,16.274,16.274
				C385.723,160.678,378.422,167.979,369.448,167.979z"/>
                </g>
            </g>
        </g>
        <g>
            <g>
                <path d="M256.274,362.432c-22.673,0-41.12,18.446-41.12,41.12c0,22.673,18.446,41.119,41.12,41.119
			c22.674,0,41.12-18.446,41.12-41.119C297.393,380.879,278.948,362.432,256.274,362.432z M256.274,428.997
			c-14.031,0-25.446-11.414-25.446-25.445s11.416-25.446,25.446-25.446c14.031,0,25.446,11.414,25.446,25.446
			C281.72,417.583,270.304,428.997,256.274,428.997z"/>
            </g>
        </g>
    </symbol>
    <symbol id="ring" viewBox="0 0 511.999 511.999">
        <g>
            <g>
                <path d="M447.457,180.089c-17.18-29.587-41.129-54.914-69.616-73.794L394.7,86.2c1.413-1.543,2.283-3.592,2.283-5.85
			c0-1.836-0.571-3.541-1.545-4.943L353.037,4.235C351.473,1.609,348.643,0,345.586,0H166.408c-3.056,0-5.887,1.609-7.451,4.235
			l-42.7,71.676c-0.086,0.143-0.148,0.294-0.224,0.441c-0.059,0.113-0.131,0.216-0.185,0.333c-0.02,0.042-0.03,0.084-0.049,0.126
			c-0.102,0.227-0.183,0.458-0.264,0.69c-0.051,0.146-0.11,0.289-0.153,0.436c-0.074,0.256-0.125,0.516-0.175,0.776
			c-0.024,0.127-0.061,0.253-0.08,0.382c-0.057,0.387-0.089,0.777-0.094,1.168c0,0.049,0.008,0.096,0.008,0.143
			c0.002,0.343,0.02,0.687,0.062,1.029c0.017,0.138,0.053,0.272,0.076,0.409c0.044,0.25,0.086,0.498,0.151,0.745
			c0.043,0.157,0.102,0.31,0.153,0.465c0.072,0.219,0.141,0.437,0.231,0.651c0.068,0.162,0.151,0.318,0.23,0.476
			c0.074,0.15,0.135,0.306,0.219,0.453c0.028,0.049,0.062,0.09,0.091,0.138c0.089,0.149,0.19,0.29,0.288,0.435
			c0.131,0.193,0.263,0.383,0.407,0.563c0.039,0.05,0.069,0.104,0.111,0.153l17.091,20.371
			c-28.488,18.88-52.436,44.207-69.612,73.796c-19.463,33.527-29.75,71.809-29.75,110.704c0,47.41,14.856,92.655,42.959,130.843
			c2.839,3.858,8.267,4.684,12.126,1.844c3.858-2.839,4.684-8.268,1.845-12.126c-25.896-35.187-39.584-76.876-39.584-120.561
			c0-35.841,9.477-71.11,27.405-101.996c16.167-27.85,38.825-51.628,65.818-69.144l33.777,40.26
			c-20.792,12.244-38.435,29.29-51.437,49.789c-15.388,24.259-23.521,52.299-23.521,81.09c0,83.712,68.105,151.817,151.817,151.817
			s151.817-68.105,151.817-151.817c0-21.714-4.517-42.705-13.426-62.387c-1.975-4.363-7.114-6.3-11.478-4.325
			c-4.363,1.975-6.3,7.113-4.325,11.478c7.885,17.419,11.882,36.003,11.882,55.235c0,74.147-60.323,134.47-134.47,134.47
			s-134.47-60.323-134.47-134.47c0-25.496,7.2-50.323,20.822-71.798c12.049-18.996,28.604-34.629,48.127-45.568
			c0,0,58.769,70.05,58.772,70.053c1.18,1.406,2.737,2.503,4.54,2.929c0.726,0.173,1.458,0.297,2.213,0.297
			c2.034,0,4.02-0.752,5.582-2.046c0.426-0.353,0.804-0.769,1.168-1.184l58.773-70.057c15.104,8.486,28.677,19.989,39.535,33.568
			c2.992,3.741,8.45,4.349,12.191,1.358c3.741-2.992,4.349-8.45,1.358-12.191c-11.562-14.459-25.853-26.839-41.758-36.235
			l20.423-24.343l13.359-15.924c26.993,17.516,49.65,41.294,65.818,69.144c17.929,30.886,27.406,66.155,27.406,101.996
			c0,112.408-91.451,203.859-203.859,203.859c-53.45,0-104.009-20.634-142.362-58.103c-3.427-3.348-8.918-3.283-12.265,0.143
			c-3.348,3.427-3.283,8.917,0.143,12.265c41.613,40.653,96.477,63.042,154.485,63.042c121.973,0,221.205-99.233,221.205-221.205
			C477.207,251.898,466.919,213.617,447.457,180.089z M171.337,17.346h38.399l-5.994,12.98c-2.008,4.348-0.111,9.502,4.238,11.51
			c1.177,0.544,2.413,0.801,3.63,0.801c3.277,0,6.416-1.868,7.88-5.04l9.351-20.252h54.31l25.088,54.329H203.754l2.462-5.332
			c2.008-4.349,0.111-9.502-4.238-11.511c-4.35-2.009-9.502-0.111-11.511,4.238l-5.822,12.605h-45.677L171.337,17.346z
			 M142.306,89.022h42.112l41.677,99.873L142.306,89.022z M358.185,102.733c-0.001,0.001-0.002,0.001-0.002,0.002l-16.79,20.013
			l-55.494,66.147l5.069-12.146c1.844-4.421-0.243-9.499-4.664-11.345c-4.419-1.845-9.499,0.243-11.345,4.664l-18.962,45.442
			L203.213,89.022h105.569l-16.251,38.944c-1.844,4.421,0.243,9.499,4.664,11.345c1.092,0.456,2.223,0.672,3.336,0.672
			c3.395,0,6.618-2.006,8.007-5.336l19.038-45.624h42.112L358.185,102.733z M327.347,71.676l-25.089-54.329h38.399l32.366,54.329
			H327.347z"/>
            </g>
        </g>
    </symbol>


    <symbol id="ring-case" viewBox="0 0 511.999 511.999">
        <g>
            <path d="M392.851,268.996h-20.406c-16.473-11.686-34.422-20.672-53.514-26.806c1.705-5.79,2.592-11.833,2.592-17.897
		c0-26.258-16.108-48.819-38.958-58.338l20.382-28.266c3.012-4.176,2.359-9.957-1.507-13.357l-21.373-18.8
		c-1.825-1.606-4.173-2.491-6.604-2.491h-30.226c-2.432,0-4.78,0.886-6.606,2.493l-21.365,18.8
		c-3.864,3.401-4.516,9.18-1.505,13.356l20.382,28.266c-22.851,9.519-38.959,32.079-38.959,58.338
		c0,6.064,0.887,12.107,2.592,17.897c-19.095,6.135-37.042,15.121-53.514,26.805h-10.406V10c0-5.523-4.478-10-10-10H82.416
		C36.972,0,0,36.972,0,82.415v124.166c0,45.444,36.972,82.415,82.416,82.415h31.438v81.906c0,17.616,14.332,31.948,31.948,31.948
		h225.1c17.616,0,31.948-14.332,31.948-31.948v-91.906C402.851,273.474,398.373,268.996,392.851,268.996z M235.29,133.354
		l11.72-10.312h22.68l11.726,10.314l-20.079,27.844c-0.989-0.046-1.983-0.076-2.984-0.076s-1.994,0.029-2.984,0.076L235.29,133.354z
		 M258.353,181.124c23.804,0,43.17,19.366,43.17,43.17c0,4.393-0.639,8.656-1.903,12.743c-2.31-0.492-4.628-0.949-6.956-1.357
		c1.214-3.644,1.86-7.486,1.86-11.386c0-19.944-16.226-36.17-36.17-36.17s-36.17,16.226-36.17,36.17c0,3.9,0.646,7.742,1.859,11.386
		c-2.328,0.409-4.647,0.865-6.956,1.357c-1.264-4.087-1.903-8.35-1.903-12.743C215.183,200.49,234.549,181.124,258.353,181.124z
		 M244.855,233.168c-1.73-2.61-2.673-5.654-2.673-8.875c0-8.916,7.254-16.17,16.17-16.17s16.17,7.254,16.17,16.17
		c0,3.221-0.942,6.264-2.672,8.875C262.896,232.565,253.799,232.565,244.855,233.168z M213.633,258.393
		c9.121-2.376,18.515-4.024,27.928-4.901c11.076-1.043,22.499-1.044,33.595,0.001c9.403,0.876,18.796,2.525,27.926,4.903
		c10.236,2.656,20.134,6.206,29.646,10.601H183.978C193.492,264.601,203.393,261.05,213.633,258.393z M20,206.581V82.415
		C20,48,48,20,82.416,20h31.438v248.996H82.416C48,268.996,20,240.997,20,206.581z M382.851,370.902
		c0,6.588-5.36,11.948-11.948,11.948h-225.1c-6.588,0-11.948-5.36-11.948-11.948v-81.906h248.996V370.902z"/>
            <path d="M258.353,81.044c5.522,0,10-4.477,10-10v-34.5c0-5.523-4.478-10-10-10s-10,4.477-10,10v34.5
		C248.353,76.567,252.83,81.044,258.353,81.044z"/>
            <path d="M308.583,101.854c2.56,0,5.118-0.976,7.071-2.929l24.399-24.4c3.905-3.905,3.905-10.237,0-14.142
		c-3.906-3.905-10.236-3.905-14.143,0l-24.399,24.4c-3.905,3.905-3.905,10.237,0,14.142
		C303.465,100.877,306.023,101.854,308.583,101.854z"/>
            <path d="M201.052,98.925c1.953,1.953,4.512,2.929,7.071,2.929s5.118-0.976,7.071-2.929c3.905-3.905,3.905-10.237,0-14.142
		l-24.4-24.4c-3.906-3.905-10.236-3.905-14.143,0c-3.905,3.905-3.905,10.237,0,14.142L201.052,98.925z"/>
        </g>
    </symbol>
    <symbol id="diamond-high" viewBox="0 0 24 24">
        <g>
            <path d="M12 3L15 12L12 21 M12 3L9 12L12 21 M12 21L19 12L12 3L5 12L12 21Z M5 12H19" stroke="currentColor"
                  stroke-linecap="round" stroke-linejoin="round" fill="none"/>
        </g>
    </symbol>
    <symbol id="diamond-med" viewBox="0 0 24 24">
        <g>
            <path d="M4 14L8 21L16 21L20 14L17.5 7.5L12 3L6.5 7.5L4 14Z M12 3V9 M16 21L13 15M17.5 7.5L14 10M6.5 7.5L10 10M11 15L8 21 M4 14L10 13M20 14L14 13 M10 9H14V15H10V9Z"
                  stroke="currentColor" stroke-linecap="round" stroke-linejoin="round" fill="none"/>
        </g>
    </symbol>


    <symbol id="diamond-low" viewBox="0 0 24 24">
        <g>
            <path d="M4 8L12 3L20 8V16L12 21L4 16V8Z M7 9.5L12 6L17 9.5V14.6667L12 18L7 14.6667V9.5Z M4 8L7 9.5 M12 3V6 M4 16L7 14.5 M12 21V18 M20 16L17 14.5 M17 9.5L20 8"
                  stroke="currentColor" stroke-linecap="round" stroke-linejoin="round" fill="none"/>
        </g>
    </symbol>
    <symbol id="ring2" viewBox="0 0 846.66 846.66">
        <g>
            <path d="M591.79 9.91c8.84,0 16.38,5.56 19.33,13.36l40.06 91.06c3.69,7.28 2.7,16.16 -2.51,22.46l-48.85 65.31c102.65,61.99 165.41,172.69 165.41,292.75 0,188.82 -153.08,341.89 -341.9,341.89 -188.82,0 -341.9,-153.07 -341.9,-341.89 0,-120.06 62.76,-230.74 165.41,-292.74l-49 -65.51c-5.08,-6.28 -6,-15.1 -2.35,-22.29l40.5 -92.05c3.4,-7.72 10.95,-12.32 18.88,-12.32l336.92 -0.03zm-42.71 260.05c81.48,45.62 131.96,131.37 131.96,224.89 0,142.32 -115.38,257.7 -257.71,257.7 -142.32,0 -257.71,-115.38 -257.71,-257.7 0,-93.52 50.48,-179.28 131.95,-224.91l-25.96 -34.71c-92.32,54.09 -148.87,152.54 -148.87,259.62 0,166.01 134.58,300.59 300.59,300.59 166.01,0 300.59,-134.58 300.59,-300.59 0,-107.07 -56.54,-205.54 -148.86,-259.63l-25.98 34.74zm-108.78 145.45c-8.18,11.78 -25.79,11.76 -33.95,-0.02l-83.85 -112.11c-71.11,37.52 -115.57,111.09 -115.57,191.57 0,119.51 96.88,216.4 216.4,216.4 119.52,0 216.4,-96.89 216.4,-216.4 0,-80.48 -44.47,-154.04 -115.57,-191.56l-83.86 112.12zm-194.76 -312.42l355.58 0 -22.77 -51.77 -310.03 0 -22.78 51.77zm345.99 41.3l-147.55 0 0 197.29 147.55 -197.29zm-188.85 0l-147.55 0 147.55 197.29 0 -197.29z"/>
        </g>
    </symbol>


</svg>