<svg fill="currentColor" style="display: none;" xmlns="http://www.w3.org/2000/svg"
     xmlns:xlink="http://www.w3.org/1999/xlink" id="ring2" viewBox="0 0 846.66 846.66">
        <g>
            <path d="M591.79 9.91c8.84,0 16.38,5.56 19.33,13.36l40.06 91.06c3.69,7.28 2.7,16.16 -2.51,22.46l-48.85 65.31c102.65,61.99 165.41,172.69 165.41,292.75 0,188.82 -153.08,341.89 -341.9,341.89 -188.82,0 -341.9,-153.07 -341.9,-341.89 0,-120.06 62.76,-230.74 165.41,-292.74l-49 -65.51c-5.08,-6.28 -6,-15.1 -2.35,-22.29l40.5 -92.05c3.4,-7.72 10.95,-12.32 18.88,-12.32l336.92 -0.03zm-42.71 260.05c81.48,45.62 131.96,131.37 131.96,224.89 0,142.32 -115.38,257.7 -257.71,257.7 -142.32,0 -257.71,-115.38 -257.71,-257.7 0,-93.52 50.48,-179.28 131.95,-224.91l-25.96 -34.71c-92.32,54.09 -148.87,152.54 -148.87,259.62 0,166.01 134.58,300.59 300.59,300.59 166.01,0 300.59,-134.58 300.59,-300.59 0,-107.07 -56.54,-205.54 -148.86,-259.63l-25.98 34.74zm-108.78 145.45c-8.18,11.78 -25.79,11.76 -33.95,-0.02l-83.85 -112.11c-71.11,37.52 -115.57,111.09 -115.57,191.57 0,119.51 96.88,216.4 216.4,216.4 119.52,0 216.4,-96.89 216.4,-216.4 0,-80.48 -44.47,-154.04 -115.57,-191.56l-83.86 112.12zm-194.76 -312.42l355.58 0 -22.77 -51.77 -310.03 0 -22.78 51.77zm345.99 41.3l-147.55 0 0 197.29 147.55 -197.29zm-188.85 0l-147.55 0 147.55 197.29 0 -197.29z"/>
        </g>
</svg>